<svg xmlns="http://www.w3.org/2000/svg" width="229.999" height="25.002" viewBox="0 0 229.999 25.002">
  <g id="Social_media" data-name="Social media" transform="translate(152.002 -711.998)">
    <g id="Group_12" data-name="Group 12" transform="translate(9.716 711.998)">
      <path id="Facebook" d="M117.218,4.843V8.285H114.7v4.209h2.522V25h5.18V12.494h3.476s.326-2.018.483-4.225h-3.94V5.391a1.222,1.222,0,0,1,1.123-1.009h2.822V0h-3.837C117.09,0,117.218,4.214,117.218,4.843Z" transform="translate(-114.696 -0.001)" fill="#565960"/>
    </g>
    <g id="Group_14" data-name="Group 14" transform="translate(52.664 714)">
      <g id="Group_13" data-name="Group 13">
        <path id="Path_19" data-name="Path 19" d="M25.333,50.437a10.828,10.828,0,0,1-2.992.82,5.164,5.164,0,0,0,2.285-2.871,10.379,10.379,0,0,1-3.293,1.257,5.193,5.193,0,0,0-8.984,3.551,5.348,5.348,0,0,0,.12,1.184,14.7,14.7,0,0,1-10.7-5.432,5.195,5.195,0,0,0,1.6,6.941,5.129,5.129,0,0,1-2.346-.64v.057a5.217,5.217,0,0,0,4.161,5.1,5.184,5.184,0,0,1-1.362.171,4.592,4.592,0,0,1-.983-.089,5.243,5.243,0,0,0,4.853,3.618,10.435,10.435,0,0,1-6.439,2.215A9.728,9.728,0,0,1,0,66.253a14.621,14.621,0,0,0,7.967,2.331A14.68,14.68,0,0,0,22.749,53.8c0-.23-.008-.451-.019-.671A10.361,10.361,0,0,0,25.333,50.437Z" transform="translate(0 -48)" fill="#565960"/>
      </g>
    </g>
    <g id="surface1" transform="translate(-45.82 714)">
      <path id="Path_48454" data-name="Path 48454" d="M12.614,10A2.632,2.632,0,0,0,10,12.614V30.386A2.632,2.632,0,0,0,12.614,33H30.386A2.632,2.632,0,0,0,33,30.386V12.614A2.632,2.632,0,0,0,30.386,10Zm0,2.091H30.386a.511.511,0,0,1,.523.523V30.386a.511.511,0,0,1-.523.523H12.614a.511.511,0,0,1-.523-.523V12.614A.511.511,0,0,1,12.614,12.091Zm3.071,1.8a1.8,1.8,0,1,0,1.8,1.8A1.8,1.8,0,0,0,15.685,13.888Zm9.442,4.77a3.224,3.224,0,0,0-2.908,1.6h-.065V18.886h-2.94v9.932h3.071v-4.9c0-1.295.257-2.548,1.862-2.548,1.58,0,1.6,1.462,1.6,2.614v4.835h3.071V23.362C28.818,20.691,28.251,18.658,25.126,18.658Zm-10.945.229v9.932h3.1V18.886Z" transform="translate(-10 -10)" fill="#565960"/>
    </g>
    <g id="surface1-2" data-name="surface1" transform="translate(-96.435 711.998)">
      <path id="Path_48455" data-name="Path 48455" d="M13.624,8l1.587,5.211V16.6h1.318V13.032L18.086,8H16.739L15.9,11.444h-.06L14.972,8Zm6.17,2.1a1.845,1.845,0,0,0-1.288.449,1.5,1.5,0,0,0-.479,1.168v3.295a1.774,1.774,0,0,0,.479,1.288,1.627,1.627,0,0,0,1.228.479,1.6,1.6,0,0,0,1.707-1.737V11.744A1.546,1.546,0,0,0,19.794,10.1Zm2.666.15v5.331a1.382,1.382,0,0,0,.21.839.734.734,0,0,0,.629.27,1.244,1.244,0,0,0,.659-.18,2.644,2.644,0,0,0,.689-.6V16.6h1.168v-6.35H24.646v4.822a1.635,1.635,0,0,1-.359.359.592.592,0,0,1-.329.12.273.273,0,0,1-.24-.09.549.549,0,0,1-.09-.329V10.246Zm-2.726.958a.564.564,0,0,1,.389.12.4.4,0,0,1,.12.329v3.474a.509.509,0,0,1-.12.389.531.531,0,0,1-.389.15.464.464,0,0,1-.359-.15.546.546,0,0,1-.12-.389V11.654a.419.419,0,0,1,.12-.329A.5.5,0,0,1,19.734,11.2Zm-.15,6.889c-2.276,0-4.5.026-6.679.12a2.788,2.788,0,0,0-2.785,2.755c-.09,1.194-.124,2.4-.12,3.594s.026,2.366.12,3.564A2.784,2.784,0,0,0,12.9,30.882c2.183.09,4.4.124,6.679.12s4.5-.03,6.679-.12a2.784,2.784,0,0,0,2.785-2.755c.09-1.2.124-2.37.12-3.564s-.026-2.4-.12-3.594a2.786,2.786,0,0,0-2.785-2.755C24.084,18.123,21.864,18.09,19.584,18.093ZM11.5,20.07h4.013a.114.114,0,0,1,.12.12v1.228a.114.114,0,0,1-.12.12H14.283v7.128a.114.114,0,0,1-.12.12H12.845c-.071,0-.15-.049-.15-.12V21.538H11.5c-.071,0-.15-.049-.15-.12V20.19C11.347,20.119,11.426,20.07,11.5,20.07Zm8.446,0h1.168c.071,0,.15.049.15.12v2.4a1.55,1.55,0,0,1,.3-.21,1.259,1.259,0,0,1,.6-.18,1.062,1.062,0,0,1,.928.449,2.158,2.158,0,0,1,.329,1.258v3.474a1.774,1.774,0,0,1-.3,1.108,1.065,1.065,0,0,1-.9.389,1.422,1.422,0,0,1-.659-.15,1.55,1.55,0,0,1-.3-.21v.15c0,.071-.079.12-.15.12H19.943a.114.114,0,0,1-.12-.12V20.19A.114.114,0,0,1,19.943,20.07Zm5.99,2.037a1.7,1.7,0,0,1,1.318.539,2.066,2.066,0,0,1,.479,1.438V25.7c0,.071-.079.12-.15.12h-2.1v1.048a1.234,1.234,0,0,0,.09.6.325.325,0,0,0,.3.15.357.357,0,0,0,.3-.12,1.232,1.232,0,0,0,.09-.629V26.42a.114.114,0,0,1,.12-.12h1.2a.114.114,0,0,1,.12.12V26.9a2.217,2.217,0,0,1-.449,1.527,1.8,1.8,0,0,1-1.408.539A1.714,1.714,0,0,1,24.5,28.4a2.206,2.206,0,0,1-.479-1.5V24.084a1.95,1.95,0,0,1,.539-1.408A1.85,1.85,0,0,1,25.934,22.107Zm-10.453.18h1.168c.071,0,.15.049.15.12V27.2c0,.157.011.217.03.24s.022.06.12.06a.607.607,0,0,0,.27-.12,1.357,1.357,0,0,0,.3-.27v-4.7a.114.114,0,0,1,.12-.12h1.168a.114.114,0,0,1,.12.12v6.26h.03c0,.071-.079.12-.15.12H17.637a.114.114,0,0,1-.12-.12v-.359a2.289,2.289,0,0,1-.479.359,1.477,1.477,0,0,1-.749.21.785.785,0,0,1-.689-.329,1.485,1.485,0,0,1-.24-.9V22.406A.114.114,0,0,1,15.481,22.287Zm6.2,1.168a.445.445,0,0,0-.27.06.526.526,0,0,0-.15.12v3.8a.759.759,0,0,0,.18.15.572.572,0,0,0,.24.03c.15,0,.195-.041.21-.06a.635.635,0,0,0,.06-.359V23.964a.644.644,0,0,0-.09-.389A.293.293,0,0,0,21.681,23.455Zm4.193.03a.351.351,0,0,0-.3.12.852.852,0,0,0-.09.479v.509h.779v-.509a.769.769,0,0,0-.12-.479A.3.3,0,0,0,25.874,23.485Z" transform="translate(-9.999 -8)" fill="#fff"/>
    </g>
    <g id="surface1-3" data-name="surface1" transform="translate(-152.002 711.998)">
      <path id="Path_48456" data-name="Path 48456" d="M17.351,10A7.38,7.38,0,0,0,10,17.351v10.3A7.38,7.38,0,0,0,17.351,35h10.3A7.38,7.38,0,0,0,35,27.651v-10.3A7.38,7.38,0,0,0,27.651,10Zm0,2.273h10.3a5.072,5.072,0,0,1,5.079,5.079v10.3a5.072,5.072,0,0,1-5.079,5.079h-10.3a5.072,5.072,0,0,1-5.079-5.079v-10.3A5.072,5.072,0,0,1,17.351,12.273Zm11.862,2.486a1.03,1.03,0,1,0,1.03,1.03A1.025,1.025,0,0,0,29.213,14.759Zm-6.712.923A6.819,6.819,0,1,0,29.32,22.5,6.838,6.838,0,0,0,22.5,15.682Zm0,2.273A4.546,4.546,0,1,1,17.955,22.5,4.526,4.526,0,0,1,22.5,17.955Z" transform="translate(-10 -10)" fill="#565960"/>
    </g>
  </g>
</svg>
