<svg id="surface2" xmlns="http://www.w3.org/2000/svg" width="23" height="23" viewBox="0 0 23 23">
  <path id="Path_48454" data-name="Path 48454" d="M12.614,10A2.632,2.632,0,0,0,10,12.614V30.386A2.632,2.632,0,0,0,12.614,33H30.386A2.632,2.632,0,0,0,33,30.386V12.614A2.632,2.632,0,0,0,30.386,10Zm0,2.091H30.386a.511.511,0,0,1,.523.523V30.386a.511.511,0,0,1-.523.523H12.614a.511.511,0,0,1-.523-.523V12.614A.511.511,0,0,1,12.614,12.091Zm3.071,1.8a1.8,1.8,0,1,0,1.8,1.8A1.8,1.8,0,0,0,15.685,13.888Zm9.442,4.77a3.224,3.224,0,0,0-2.908,1.6h-.065V18.886h-2.94v9.932h3.071v-4.9c0-1.295.257-2.548,1.862-2.548,1.58,0,1.6,1.462,1.6,2.614v4.835h3.071V23.362C28.818,20.691,28.251,18.658,25.126,18.658Zm-10.945.229v9.932h3.1V18.886Z" transform="translate(-10 -10)" fill="#fff"/>
</svg>
